# xmcd CD database file
#
# Track frame offsets:
#	150
#	13266
#	26378
#	44221
#	62063
#	77371
#	92537
#	109047
#	125601
#	143614
#	161509
#	176052
#	190608
#	207276
#	223941
#	238053
#	252167
#	269681
#	287186
#	306194
#	325198
#
# Disc length: 4354 seconds
#
# Revision: 0
# Processed by: cddbd v1.5.2PL0 Copyright (c) Steve Scherf et al.
# Submitted via: CDex 1.50
#
DISCID=34110015
DTITLE=Hal Leonard - Vol 65 Smooth Jazz
DYEAR=1900
DGENRE=Jazz
TTITLE0=Angela Split
TTITLE1=Angela PB
TTITLE2=Cast your fate to the wind Split
TTITLE3=Cast your fate to the wind PB
TTITLE4=Feels so good Split
TTITLE5=Feels so good PB
TTITLE6=Give me the night Split
TTITLE7=Give me the night PB
TTITLE8=Just the two of us Split
TTITLE9=Just the two of us PB
TTITLE10=Minute by minute Split
TTITLE11=Minute by minute PB
TTITLE12=Morning Dance Split
TTITLE13=Morning Dance PB
TTITLE14=Songbird Split
TTITLE15=Songbird PB
TTITLE16=Street life Split
TTITLE17=Street life PB
TTITLE18=This masquerade Split
TTITLE19=This masquerade PB
TTITLE20=Tuning notes
EXTD=
EXTT0=
EXTT1=
EXTT2=
EXTT3=
EXTT4=
EXTT5=
EXTT6=
EXTT7=
EXTT8=
EXTT9=
EXTT10=
EXTT11=
EXTT12=
EXTT13=
EXTT14=
EXTT15=
EXTT16=
EXTT17=
EXTT18=
EXTT19=
EXTT20=
PLAYORDER=
